PathFileType	4	(x/y/z)	S06_P20_T34
DataRate	CameraRate	NumFrames	NumMarkers	Units	OrigDataRate	OrigDataStartFrame	OrigNumFrames
240	240	5	51	mm	240	1	354
Frame#	Time	Sternum			R.Acromium			L.Acromium			Top.Head			R.ASIS			L.ASIS			R.PSIS			L.PSIS			R.Great.Tro			L.Great.Tro			R.Iliac.Crest			L.Iliac.Crest			V.Sacral			R.Thigh.Upper.Post			R.Thigh.Lower.Ant			R.Thigh.Lower.Post			R.Thigh.Upper.Ant			R.Knee.Lat			R.Knee.Med			R.Shank.Upper.Post			R.Shank.Lower.Ant			R.Shank.Lower.Post			R.Shank.Upper.Ant			R.Ankle.Lat			R.Ankle.Med			R.Heel.Upper			R.Heel.Med			R.Heel.Lat			R.Toe.Lat			R.Toe.Med			R.Toe.Tip			L.Thigh.Upper.Post			L.Thigh.Lower.Ant			L.Thigh.Lower.Post			L.Thigh.Upper.Ant			L.Knee.Lat			L.Knee.Med			L.Shank.Upper.Post			L.Shank.Lower.Ant			L.Shank.Lower.Post			L.Shank.Upper.Ant			L.Ankle.Lat			L.Ankle.Med			L.Heel.Upper			L.Heel.Med			L.Heel.Lat			L.Toe.Lat			L.Toe.Med			L.Toe.Tip			Cervical.Spine			Back			
		X1	Y1	Z1	X2	Y2	Z2	X3	Y3	Z3	X4	Y4	Z4	X5	Y5	Z5	X6	Y6	Z6	X7	Y7	Z7	X8	Y8	Z8	X9	Y9	Z9	X10	Y10	Z10	X11	Y11	Z11	X12	Y12	Z12	X13	Y13	Z13	X14	Y14	Z14	X15	Y15	Z15	X16	Y16	Z16	X17	Y17	Z17	X18	Y18	Z18	X19	Y19	Z19	X20	Y20	Z20	X21	Y21	Z21	X22	Y22	Z22	X23	Y23	Z23	X24	Y24	Z24	X25	Y25	Z25	X26	Y26	Z26	X27	Y27	Z27	X28	Y28	Z28	X29	Y29	Z29	X30	Y30	Z30	X31	Y31	Z31	X32	Y32	Z32	X33	Y33	Z33	X34	Y34	Z34	X35	Y35	Z35	X36	Y36	Z36	X37	Y37	Z37	X38	Y38	Z38	X39	Y39	Z39	X40	Y40	Z40	X41	Y41	Z41	X42	Y42	Z42	X43	Y43	Z43	X44	Y44	Z44	X45	Y45	Z45	X46	Y46	Z46	X47	Y47	Z47	X48	Y48	Z48	X49	Y49	Z49	X50	Y50	Z50	X51	Y51	Z51	

1	0	NaN	NaN	NaN	-1403.8	1491.8	517.74	-1444.2	1494.3	167.95	-1384.9	1808.9	335.29	NaN	NaN	NaN	NaN	NaN	NaN	-1561.8	1074.4	380.37	-1566.6	1076.5	300.56	NaN	NaN	NaN	-1452	977.71	164.79	-1448.6	1126.9	505.51	-1434.2	1118.9	184.57	-1579	1042.2	345.01	-1481	735.64	507.04	-1422.1	644.33	469.06	-1509.6	652.82	488.28	-1396.8	728.96	487.18	-1498.5	532.12	469.5	-1498.5	541.83	341.97	-1627.4	337.28	469.26	NaN	NaN	NaN	-1659.6	268.57	451.95	NaN	NaN	NaN	-1699.1	139.4	422.88	-1681.7	136.95	336.34	-1771.2	109.51	379.89	-1766.4	74.986	351.04	-1767.4	79.133	415.35	-1592.7	44.827	453.04	-1568.2	44.596	331.3	-1500.5	50.15	376.63	-1307.4	737.67	182.65	-1240.7	677.45	246.28	-1298.3	648.55	201.08	-1259.3	769.54	226.21	-1284.5	557.9	219.36	-1261	569.97	338.14	-1290.3	328.73	229.3	-1215.2	279.43	226.45	-1282	257.22	245.92	-1227	348.77	215.3	-1208.4	121.33	241.38	-1196.8	132.26	331.82	-1268.2	62.106	293.56	-1252.8	40.208	325.62	-1253.5	38.265	264.37	-1084.9	86.002	217.56	NaN	NaN	NaN	-1003.8	141.82	276.36	-1483.3	1548	348.82	-1550	1279.5	353.05
2	0.0041667	NaN	NaN	NaN	-1399.4	1491.4	517.46	-1439.6	1493.9	167.6	-1380.4	1808.5	335.08	NaN	NaN	NaN	NaN	NaN	NaN	-1556.8	1073.9	379.93	-1561.6	1076	300.12	NaN	NaN	NaN	-1447	977.16	164.56	-1443.6	1126.5	505.13	-1429.2	1118.3	184.15	-1574.1	1041.7	344.6	-1475.2	735.17	506.82	-1417.5	643.78	469.79	-1503.6	652.17	488.41	-1391.9	728.69	487.28	-1494.2	531.86	470	-1493.6	541.34	342.17	-1624.1	338.08	469.48	NaN	NaN	NaN	-1657.5	269.89	452.04	NaN	NaN	NaN	-1697.7	140.75	423.18	-1680.5	138.46	336.57	-1770.2	111.75	380.14	-1765.6	77.464	351.14	-1766.8	81.41	415.44	-1592.5	44.81	453.07	-1568	44.723	331.29	-1500.3	50.036	376.56	-1303.4	736.69	182.6	-1236.5	676.33	246.07	-1294.7	647.6	201.25	-1254.8	768.41	225.77	-1280.9	556.93	219.42	-1257.5	568.99	338.18	-1287.7	327.81	229.43	-1212.9	278.13	226.98	-1279.9	256.25	246.09	-1224.3	347.54	215.8	-1207.1	120.19	241.9	-1195.8	130.95	332.5	-1267.2	62.351	293.63	-1252.4	40.143	325.76	-1252.8	38.417	264.46	-1083.6	83.945	218.69	NaN	NaN	NaN	-1002.5	138.82	278.01	-1478.8	1547.6	348.52	-1545.3	1279	352.63
3	0.0083333	NaN	NaN	NaN	-1394.8	1490.9	517.16	-1434.8	1493.5	167.23	-1375.7	1808.2	334.87	NaN	NaN	NaN	NaN	NaN	NaN	-1551.6	1073.4	379.47	-1556.4	1075.5	299.66	NaN	NaN	NaN	-1441.8	976.59	164.31	-1438.4	1126.2	504.73	-1424	1117.8	183.71	-1569	1041.2	344.17	-1469.2	734.68	506.6	-1412.5	643.21	470.54	-1497.2	651.48	488.55	-1386.7	728.41	487.39	-1489.5	531.58	470.52	-1488.4	540.81	342.39	-1620.6	338.95	469.72	NaN	NaN	NaN	-1655.2	271.3	452.15	NaN	NaN	NaN	-1696.2	142.2	423.51	-1679.2	140.08	336.83	-1769.1	114.2	380.41	-1764.8	80.146	351.23	-1766	83.874	415.54	-1592.3	44.798	453.1	-1567.8	44.866	331.28	-1500.2	49.913	376.5	-1299.1	735.68	182.54	-1232.2	675.18	245.87	-1290.9	646.62	201.41	-1250	767.24	225.31	-1277.2	555.94	219.47	-1253.8	567.99	338.22	-1285.1	326.87	229.56	-1210.5	276.8	227.52	-1277.6	255.26	246.27	-1221.5	346.28	216.31	-1205.7	119.03	242.43	-1194.7	129.61	333.18	-1266.1	62.616	293.69	-1252	40.096	325.89	-1252.2	38.586	264.55	-1082.3	81.827	219.81	NaN	NaN	NaN	-1001.2	135.7	279.67	-1474.1	1547.2	348.19	-1540.3	1278.5	352.2
4	0.0125	NaN	NaN	NaN	-1390.1	1490.5	516.85	-1429.9	1493.2	166.85	-1370.8	1807.9	334.66	NaN	NaN	NaN	NaN	NaN	NaN	-1546.2	1072.8	378.99	-1551	1074.9	299.19	NaN	NaN	NaN	-1436.5	976.02	164.04	-1433.1	1125.9	504.31	-1418.6	1117.3	183.25	-1563.7	1040.6	343.72	-1462.9	734.17	506.39	-1407.3	642.65	471.3	-1490.5	650.76	488.7	-1381.3	728.14	487.53	-1484.6	531.27	471.05	-1482.9	540.24	342.64	-1616.9	339.87	469.99	NaN	NaN	NaN	-1652.6	272.8	452.28	NaN	NaN	NaN	-1694.5	143.76	423.87	-1677.6	141.79	337.12	-1767.8	116.85	380.7	-1763.8	83.039	351.33	-1765.2	86.532	415.64	-1592.1	44.794	453.12	-1567.6	45.031	331.26	-1500.1	49.781	376.43	-1294.7	734.66	182.48	-1227.7	674.01	245.67	-1287	645.63	201.56	-1245.2	766.05	224.86	-1273.4	554.93	219.52	-1250	566.98	338.26	-1282.3	325.93	229.7	-1208	275.46	228.06	-1275.3	254.27	246.44	-1218.6	345	216.82	-1204.3	117.86	242.96	-1193.5	128.27	333.85	-1265	62.9	293.76	-1251.6	40.068	326.02	-1251.5	38.77	264.63	-1080.9	79.667	220.92	NaN	NaN	NaN	-999.87	132.49	281.3	-1469.2	1546.8	347.85	-1535.2	1278	351.75
5	0.016667	NaN	NaN	NaN	-1385.2	1490.1	516.51	-1424.9	1492.8	166.45	-1365.8	1807.6	334.44	NaN	NaN	NaN	NaN	NaN	NaN	-1540.7	1072.3	378.49	-1545.5	1074.4	298.69	NaN	NaN	NaN	-1430.9	975.46	163.75	-1427.6	1125.6	503.88	-1413.2	1116.8	182.78	-1558.2	1040.1	343.25	-1456.4	733.63	506.18	-1401.7	642.09	472.07	-1483.6	650.02	488.85	-1375.6	727.87	487.68	-1479.2	530.93	471.59	-1477.1	539.64	342.92	-1612.9	340.86	470.27	NaN	NaN	NaN	-1649.9	274.4	452.43	NaN	NaN	NaN	-1692.7	145.43	424.26	-1675.9	143.61	337.45	-1766.4	119.71	380.99	-1762.7	86.154	351.44	-1764.2	89.393	415.75	-1591.9	44.804	453.15	-1567.3	45.22	331.26	-1499.9	49.643	376.36	-1290.2	733.64	182.42	-1223.2	672.84	245.47	-1282.9	644.64	201.71	-1240.2	764.85	224.4	-1269.5	553.92	219.56	-1246.1	565.96	338.3	-1279.5	324.99	229.84	-1205.4	274.12	228.6	-1273	253.28	246.62	-1215.5	343.73	217.33	-1202.8	116.71	243.49	-1192.3	126.93	334.51	-1263.8	63.203	293.82	-1251.1	40.065	326.14	-1250.9	38.971	264.71	-1079.6	77.486	222.01	NaN	NaN	NaN	-998.49	129.2	282.89	-1464.2	1546.4	347.49	-1530	1277.5	351.29
